<svg xmlns="http://www.w3.org/2000/svg" width="24" height="24" viewBox="0 0 24 24" fill="none" aria-hidden="true">
  <circle cx="12" cy="12" r="12" fill="white"/>
  <path fill-rule="evenodd" clip-rule="evenodd" d="M12 1.5C17.799 1.5 22.5 6.20101 22.5 12C22.5 13.0425 22.3481 14.0494 22.0652 15H20.25L18.75 13.5H16.725L16.7248 9.95281L17.6278 10.7066L18.9722 9.09337L16.1998 6.78286L16.2 4.5H14.1L14.0998 5.03356L12 3.28321L5.02781 9.09337L6.37219 10.7066L7.27481 9.95281C7.27481 9.95281 7.27491 12.1147 7.27497 13.5H1.60633C1.53626 13.0101 1.5 12.5093 1.5 12C1.5 6.20101 6.20101 1.5 12 1.5ZM13.575 9V13.5H10.425V9H13.575Z" fill="#A1ABAB"/>
  <path fill-rule="evenodd" clip-rule="evenodd" d="M18 16.5L19.5 18L20.6182 18C18.7208 20.7202 15.5684 22.5 12.0003 22.5C7.8117 22.5 4.19594 20.0474 2.51074 16.5C3 16.5 18 16.5 18 16.5Z" fill="#E1251B"/>
</svg>
